<mxfile host="Electron" agent="Mozilla/5.0 (Windows NT 10.0; Win64; x64) AppleWebKit/537.36 (KHTML, like Gecko) draw.io/26.2.2 Chrome/134.0.6998.178 Electron/35.1.2 Safari/537.36" version="26.2.2">
  <diagram name="Page-1" id="QCES-tkSD1Wiy6Soiq-c">
    <mxGraphModel dx="1285" dy="1168" grid="1" gridSize="10" guides="1" tooltips="1" connect="1" arrows="1" fold="1" page="1" pageScale="1" pageWidth="1100" pageHeight="850" background="#FFFFFF" math="0" shadow="0">
      <root>
        <mxCell id="0" />
        <mxCell id="1" parent="0" />
        <mxCell id="1-Ekv07ppmkSYtk2bnCQ-3" value="" style="rounded=0;whiteSpace=wrap;html=1;fillColor=none;dashed=1;strokeColor=light-dark(#616161, #ededed);" vertex="1" parent="1">
          <mxGeometry x="59.15" y="130" width="160" height="680" as="geometry" />
        </mxCell>
        <mxCell id="1-Ekv07ppmkSYtk2bnCQ-4" value="Sources" style="rounded=0;whiteSpace=wrap;html=1;strokeColor=none;fillColor=default;fontSize=24;" vertex="1" parent="1">
          <mxGeometry x="79.15" y="120" width="120" height="30" as="geometry" />
        </mxCell>
        <mxCell id="1-Ekv07ppmkSYtk2bnCQ-5" value="" style="rounded=0;whiteSpace=wrap;html=1;fillColor=none;dashed=1;strokeColor=light-dark(#000000,#717171);" vertex="1" parent="1">
          <mxGeometry x="250" y="130" width="620" height="680" as="geometry" />
        </mxCell>
        <mxCell id="1-Ekv07ppmkSYtk2bnCQ-6" value="High Level Architecture" style="text;strokeColor=none;fillColor=none;html=1;fontSize=24;fontStyle=1;verticalAlign=middle;align=center;" vertex="1" parent="1">
          <mxGeometry x="130" y="20" width="100" height="40" as="geometry" />
        </mxCell>
        <mxCell id="1-Ekv07ppmkSYtk2bnCQ-7" value="Data Warehouse" style="rounded=0;whiteSpace=wrap;html=1;strokeColor=none;fillColor=default;fontSize=24;" vertex="1" parent="1">
          <mxGeometry x="455" y="120" width="190" height="30" as="geometry" />
        </mxCell>
        <mxCell id="1-Ekv07ppmkSYtk2bnCQ-9" value="" style="rounded=0;whiteSpace=wrap;html=1;fillColor=none;dashed=1;strokeColor=light-dark(#000000,#717171);" vertex="1" parent="1">
          <mxGeometry x="910" y="130" width="160" height="680" as="geometry" />
        </mxCell>
        <mxCell id="1-Ekv07ppmkSYtk2bnCQ-10" value="Consume" style="rounded=0;whiteSpace=wrap;html=1;strokeColor=none;fillColor=default;fontSize=24;" vertex="1" parent="1">
          <mxGeometry x="930" y="120" width="120" height="30" as="geometry" />
        </mxCell>
        <mxCell id="1-Ekv07ppmkSYtk2bnCQ-11" value="Bronze Layer" style="rounded=0;whiteSpace=wrap;html=1;fillColor=#ffe6cc;strokeColor=#d79b00;fontSize=20;fontStyle=1" vertex="1" parent="1">
          <mxGeometry x="280" y="163" width="150" height="30" as="geometry" />
        </mxCell>
        <mxCell id="1-Ekv07ppmkSYtk2bnCQ-12" value="" style="rounded=0;whiteSpace=wrap;html=1;fillColor=none;strokeColor=#d79b00;fontSize=20;" vertex="1" parent="1">
          <mxGeometry x="280" y="210" width="150" height="570" as="geometry" />
        </mxCell>
        <mxCell id="1-Ekv07ppmkSYtk2bnCQ-13" value="Silver Layer" style="rounded=0;whiteSpace=wrap;html=1;fillColor=#f5f5f5;strokeColor=#666666;fontSize=20;fontColor=#333333;fontStyle=1" vertex="1" parent="1">
          <mxGeometry x="480" y="163" width="150" height="30" as="geometry" />
        </mxCell>
        <mxCell id="1-Ekv07ppmkSYtk2bnCQ-14" value="" style="rounded=0;whiteSpace=wrap;html=1;fillColor=none;strokeColor=#666666;fontSize=20;fontColor=#333333;" vertex="1" parent="1">
          <mxGeometry x="480" y="210" width="150" height="570" as="geometry" />
        </mxCell>
        <mxCell id="1-Ekv07ppmkSYtk2bnCQ-15" value="Gold Layer" style="rounded=0;whiteSpace=wrap;html=1;fillColor=#fff2cc;strokeColor=#d6b656;fontSize=20;fontStyle=1" vertex="1" parent="1">
          <mxGeometry x="690" y="163" width="150" height="30" as="geometry" />
        </mxCell>
        <mxCell id="1-Ekv07ppmkSYtk2bnCQ-16" value="" style="rounded=0;whiteSpace=wrap;html=1;fillColor=none;strokeColor=#d6b656;fontSize=20;" vertex="1" parent="1">
          <mxGeometry x="690" y="210" width="150" height="570" as="geometry" />
        </mxCell>
        <mxCell id="1-Ekv07ppmkSYtk2bnCQ-17" value="&lt;b&gt;&lt;font style=&quot;font-size: 14px;&quot;&gt;CRM&lt;/font&gt;&lt;/b&gt;" style="image;aspect=fixed;html=1;points=[];align=center;fontSize=12;image=img/lib/azure2/general/Folder_Blank.svg;" vertex="1" parent="1">
          <mxGeometry x="100" y="170" width="69" height="56.00000000000001" as="geometry" />
        </mxCell>
        <mxCell id="1-Ekv07ppmkSYtk2bnCQ-18" value="" style="image;aspect=fixed;html=1;points=[];align=center;fontSize=12;image=img/lib/azure2/general/File.svg;" vertex="1" parent="1">
          <mxGeometry x="144" y="193" width="35.71" height="44" as="geometry" />
        </mxCell>
        <mxCell id="1-Ekv07ppmkSYtk2bnCQ-21" value="&lt;b&gt;&lt;font style=&quot;font-size: 14px;&quot;&gt;ERP&lt;/font&gt;&lt;/b&gt;" style="image;aspect=fixed;html=1;points=[];align=center;fontSize=12;image=img/lib/azure2/general/Folder_Blank.svg;" vertex="1" parent="1">
          <mxGeometry x="100" y="263" width="69" height="56.00000000000001" as="geometry" />
        </mxCell>
        <mxCell id="1-Ekv07ppmkSYtk2bnCQ-22" value="" style="image;aspect=fixed;html=1;points=[];align=center;fontSize=12;image=img/lib/azure2/general/File.svg;" vertex="1" parent="1">
          <mxGeometry x="144" y="286" width="35.71" height="44" as="geometry" />
        </mxCell>
        <mxCell id="1-Ekv07ppmkSYtk2bnCQ-24" value="" style="endArrow=none;html=1;rounded=0;strokeColor=light-dark(#616161, #ededed);" edge="1" parent="1">
          <mxGeometry width="50" height="50" relative="1" as="geometry">
            <mxPoint x="211.23" y="403" as="sourcePoint" />
            <mxPoint x="67.08" y="403" as="targetPoint" />
          </mxGeometry>
        </mxCell>
        <mxCell id="1-Ekv07ppmkSYtk2bnCQ-25" value="&lt;b&gt;Object Type&lt;/b&gt;: CSV Files&lt;div&gt;&lt;br&gt;&lt;/div&gt;&lt;div&gt;&lt;b&gt;Interface&lt;/b&gt;: Files in Folder&lt;/div&gt;" style="text;html=1;align=center;verticalAlign=middle;whiteSpace=wrap;rounded=0;" vertex="1" parent="1">
          <mxGeometry x="64.5" y="570" width="140" height="30" as="geometry" />
        </mxCell>
        <mxCell id="1-Ekv07ppmkSYtk2bnCQ-26" value="" style="html=1;verticalLabelPosition=bottom;align=center;labelBackgroundColor=#ffffff;verticalAlign=top;strokeWidth=2;strokeColor=#d79b00;shadow=0;dashed=0;shape=mxgraph.ios7.icons.data;fillColor=#ffe6cc;" vertex="1" parent="1">
          <mxGeometry x="336.5" y="250" width="37" height="47" as="geometry" />
        </mxCell>
        <mxCell id="1-Ekv07ppmkSYtk2bnCQ-27" value="" style="html=1;verticalLabelPosition=bottom;align=center;labelBackgroundColor=#ffffff;verticalAlign=top;strokeWidth=2;strokeColor=#666666;shadow=0;dashed=0;shape=mxgraph.ios7.icons.data;fillColor=#f5f5f5;fontColor=#333333;" vertex="1" parent="1">
          <mxGeometry x="540" y="250" width="37" height="47" as="geometry" />
        </mxCell>
        <mxCell id="1-Ekv07ppmkSYtk2bnCQ-28" value="" style="html=1;verticalLabelPosition=bottom;align=center;labelBackgroundColor=#ffffff;verticalAlign=top;strokeWidth=2;strokeColor=#d6b656;shadow=0;dashed=0;shape=mxgraph.ios7.icons.data;fillColor=#fff2cc;" vertex="1" parent="1">
          <mxGeometry x="750" y="250" width="37" height="47" as="geometry" />
        </mxCell>
        <mxCell id="1-Ekv07ppmkSYtk2bnCQ-29" value="" style="shape=singleArrow;whiteSpace=wrap;html=1;fillColor=#dae8fc;strokeColor=#6c8ebf;" vertex="1" parent="1">
          <mxGeometry x="200" y="365" width="90" height="45" as="geometry" />
        </mxCell>
        <mxCell id="1-Ekv07ppmkSYtk2bnCQ-30" value="" style="shape=singleArrow;whiteSpace=wrap;html=1;fillColor=#dae8fc;strokeColor=#6c8ebf;" vertex="1" parent="1">
          <mxGeometry x="413.5" y="365" width="86.5" height="45" as="geometry" />
        </mxCell>
        <mxCell id="1-Ekv07ppmkSYtk2bnCQ-32" value="" style="shape=singleArrow;whiteSpace=wrap;html=1;fillColor=#dae8fc;strokeColor=#6c8ebf;" vertex="1" parent="1">
          <mxGeometry x="620" y="365" width="90" height="45" as="geometry" />
        </mxCell>
        <mxCell id="1-Ekv07ppmkSYtk2bnCQ-34" value="" style="shape=singleArrow;whiteSpace=wrap;html=1;fillColor=#dae8fc;strokeColor=#6c8ebf;" vertex="1" parent="1">
          <mxGeometry x="830" y="365" width="90" height="45" as="geometry" />
        </mxCell>
        <mxCell id="1-Ekv07ppmkSYtk2bnCQ-35" value="Raw Data" style="text;html=1;align=center;verticalAlign=middle;whiteSpace=wrap;rounded=0;" vertex="1" parent="1">
          <mxGeometry x="330" y="316" width="60" height="30" as="geometry" />
        </mxCell>
        <mxCell id="1-Ekv07ppmkSYtk2bnCQ-36" value="Cleaned, Standardized Data" style="text;html=1;align=center;verticalAlign=middle;whiteSpace=wrap;rounded=0;" vertex="1" parent="1">
          <mxGeometry x="528.5" y="319" width="60" height="30" as="geometry" />
        </mxCell>
        <mxCell id="1-Ekv07ppmkSYtk2bnCQ-37" value="Business-Ready Data" style="text;html=1;align=center;verticalAlign=middle;whiteSpace=wrap;rounded=0;" vertex="1" parent="1">
          <mxGeometry x="740" y="319" width="60" height="30" as="geometry" />
        </mxCell>
        <mxCell id="1-Ekv07ppmkSYtk2bnCQ-38" value="" style="endArrow=none;html=1;rounded=0;strokeColor=#d79b00;fillColor=#ffe6cc;" edge="1" parent="1">
          <mxGeometry width="50" height="50" relative="1" as="geometry">
            <mxPoint x="418.53" y="400" as="sourcePoint" />
            <mxPoint x="301.46" y="400" as="targetPoint" />
          </mxGeometry>
        </mxCell>
        <mxCell id="1-Ekv07ppmkSYtk2bnCQ-39" value="" style="endArrow=none;html=1;rounded=0;strokeColor=#666666;fillColor=#f5f5f5;" edge="1" parent="1">
          <mxGeometry width="50" height="50" relative="1" as="geometry">
            <mxPoint x="613.53" y="399.99999999999994" as="sourcePoint" />
            <mxPoint x="496.46" y="399.99999999999994" as="targetPoint" />
          </mxGeometry>
        </mxCell>
        <mxCell id="1-Ekv07ppmkSYtk2bnCQ-40" value="" style="endArrow=none;html=1;rounded=0;strokeColor=#d6b656;fillColor=#fff2cc;" edge="1" parent="1">
          <mxGeometry width="50" height="50" relative="1" as="geometry">
            <mxPoint x="823.54" y="400" as="sourcePoint" />
            <mxPoint x="706.47" y="400" as="targetPoint" />
          </mxGeometry>
        </mxCell>
        <mxCell id="1-Ekv07ppmkSYtk2bnCQ-43" value="&lt;b&gt;Object Type&lt;/b&gt;: Tables&lt;div&gt;&lt;br&gt;&lt;/div&gt;&lt;div&gt;&lt;b&gt;Load&lt;/b&gt;:&lt;/div&gt;&lt;div&gt;&lt;ul&gt;&lt;li&gt;Batch Processing&lt;/li&gt;&lt;li&gt;Full Load&lt;/li&gt;&lt;li&gt;Truncate &amp;amp; Insert&lt;/li&gt;&lt;/ul&gt;&lt;div&gt;No transfomrations&lt;/div&gt;&lt;/div&gt;&lt;div&gt;&lt;br&gt;&lt;/div&gt;&lt;div&gt;&lt;b&gt;Data Model&lt;/b&gt;: None (as-is)&lt;/div&gt;" style="text;html=1;align=left;verticalAlign=middle;whiteSpace=wrap;rounded=0;" vertex="1" parent="1">
          <mxGeometry x="295" y="500" width="130" height="30" as="geometry" />
        </mxCell>
        <mxCell id="1-Ekv07ppmkSYtk2bnCQ-45" value="&lt;b&gt;Object Type&lt;/b&gt;: Tables&lt;div&gt;&lt;br&gt;&lt;/div&gt;&lt;div&gt;&lt;b&gt;Load&lt;/b&gt;:&lt;/div&gt;&lt;div&gt;&lt;ul&gt;&lt;li&gt;Batch Processing&lt;/li&gt;&lt;li&gt;Full Load&lt;/li&gt;&lt;li&gt;Truncate &amp;amp; Insert&lt;/li&gt;&lt;/ul&gt;&lt;div&gt;&lt;b&gt;Transfrmations&lt;/b&gt;:&lt;/div&gt;&lt;/div&gt;&lt;div&gt;&lt;ul&gt;&lt;li&gt;Data Cleansing&lt;/li&gt;&lt;li&gt;Data Standarization&lt;/li&gt;&lt;li&gt;Data Normalizations&lt;/li&gt;&lt;li&gt;Derived Columns&lt;/li&gt;&lt;li&gt;Data Enrichment&lt;/li&gt;&lt;/ul&gt;&lt;/div&gt;&lt;div&gt;&lt;br&gt;&lt;/div&gt;&lt;div&gt;&lt;b&gt;Data Model&lt;/b&gt;: None (as-is)&lt;/div&gt;" style="text;html=1;align=left;verticalAlign=middle;whiteSpace=wrap;rounded=0;" vertex="1" parent="1">
          <mxGeometry x="493.5" y="580" width="130" height="30" as="geometry" />
        </mxCell>
        <mxCell id="1-Ekv07ppmkSYtk2bnCQ-46" value="&lt;b&gt;Object Type&lt;/b&gt;: Views&lt;div&gt;&lt;br&gt;&lt;/div&gt;&lt;div&gt;No &lt;b&gt;Load&lt;/b&gt;&lt;/div&gt;&lt;div&gt;&lt;b&gt;&lt;br&gt;&lt;/b&gt;&lt;/div&gt;&lt;div&gt;&lt;div&gt;&lt;b&gt;Transfrmations&lt;/b&gt;:&lt;/div&gt;&lt;div&gt;&lt;ul&gt;&lt;li&gt;Data Integrations&lt;/li&gt;&lt;li&gt;Aggregations&lt;/li&gt;&lt;li&gt;Business Logics&lt;/li&gt;&lt;/ul&gt;&lt;/div&gt;&lt;div&gt;&lt;b style=&quot;background-color: transparent; color: light-dark(rgb(0, 0, 0), rgb(255, 255, 255));&quot;&gt;Data Model&lt;/b&gt;&lt;span style=&quot;background-color: transparent; color: light-dark(rgb(0, 0, 0), rgb(255, 255, 255));&quot;&gt;:&lt;/span&gt;&lt;/div&gt;&lt;/div&gt;&lt;div&gt;&lt;ul&gt;&lt;li&gt;&lt;span style=&quot;background-color: transparent; color: light-dark(rgb(0, 0, 0), rgb(255, 255, 255));&quot;&gt;Star Schema&lt;/span&gt;&lt;/li&gt;&lt;li&gt;Flat Table&lt;/li&gt;&lt;li&gt;Aggregated Table&lt;/li&gt;&lt;/ul&gt;&lt;/div&gt;" style="text;html=1;align=left;verticalAlign=middle;whiteSpace=wrap;rounded=0;" vertex="1" parent="1">
          <mxGeometry x="700" y="530" width="130" height="30" as="geometry" />
        </mxCell>
        <mxCell id="1-Ekv07ppmkSYtk2bnCQ-48" value="" style="image;aspect=fixed;html=1;points=[];align=center;fontSize=12;image=img/lib/azure2/analytics/Power_BI_Embedded.svg;" vertex="1" parent="1">
          <mxGeometry x="930" y="219" width="51" height="68" as="geometry" />
        </mxCell>
        <mxCell id="1-Ekv07ppmkSYtk2bnCQ-49" value="" style="shape=image;verticalLabelPosition=bottom;labelBackgroundColor=default;verticalAlign=top;aspect=fixed;imageAspect=0;image=https://b-new.be/wp-content/uploads/2020/07/TB.png;" vertex="1" parent="1">
          <mxGeometry x="950" y="210" width="123.64" height="85" as="geometry" />
        </mxCell>
        <mxCell id="1-Ekv07ppmkSYtk2bnCQ-50" value="BI &amp;amp; Reporting" style="text;html=1;align=center;verticalAlign=middle;whiteSpace=wrap;rounded=0;" vertex="1" parent="1">
          <mxGeometry x="960" y="319" width="60" height="30" as="geometry" />
        </mxCell>
        <mxCell id="1-Ekv07ppmkSYtk2bnCQ-51" value="Ad-Hoc SQL Queries" style="text;html=1;align=center;verticalAlign=middle;whiteSpace=wrap;rounded=0;" vertex="1" parent="1">
          <mxGeometry x="970" y="500" width="60" height="30" as="geometry" />
        </mxCell>
        <mxCell id="1-Ekv07ppmkSYtk2bnCQ-52" value="Machine Learning" style="text;html=1;align=center;verticalAlign=middle;whiteSpace=wrap;rounded=0;" vertex="1" parent="1">
          <mxGeometry x="960" y="680" width="60" height="30" as="geometry" />
        </mxCell>
        <mxCell id="1-Ekv07ppmkSYtk2bnCQ-55" value="" style="shadow=0;dashed=0;html=1;strokeColor=none;fillColor=#EF8F21;labelPosition=center;verticalLabelPosition=bottom;verticalAlign=top;align=center;outlineConnect=0;shape=mxgraph.veeam.reporting;" vertex="1" parent="1">
          <mxGeometry x="981" y="440" width="44.8" height="44.8" as="geometry" />
        </mxCell>
        <mxCell id="1-Ekv07ppmkSYtk2bnCQ-56" value="" style="sketch=0;outlineConnect=0;fontColor=#232F3E;gradientColor=none;fillColor=#ED7100;strokeColor=none;dashed=0;verticalLabelPosition=bottom;verticalAlign=top;align=center;html=1;fontSize=12;fontStyle=0;aspect=fixed;pointerEvents=1;shape=mxgraph.aws4.braket_tensor_network;" vertex="1" parent="1">
          <mxGeometry x="960" y="610" width="58" height="58" as="geometry" />
        </mxCell>
        <mxCell id="1-Ekv07ppmkSYtk2bnCQ-57" style="edgeStyle=orthogonalEdgeStyle;rounded=0;orthogonalLoop=1;jettySize=auto;html=1;exitX=0.5;exitY=1;exitDx=0;exitDy=0;" edge="1" parent="1" source="1-Ekv07ppmkSYtk2bnCQ-43" target="1-Ekv07ppmkSYtk2bnCQ-43">
          <mxGeometry relative="1" as="geometry" />
        </mxCell>
        <mxCell id="1-Ekv07ppmkSYtk2bnCQ-58" value="" style="shape=image;verticalLabelPosition=bottom;labelBackgroundColor=default;verticalAlign=top;aspect=fixed;imageAspect=0;image=https://meroxa.com/static/62ac6ff8f99135c7632c4fae2de9182f/sqlserver-logo.svg;" vertex="1" parent="1">
          <mxGeometry x="250" y="90" width="157.38" height="40" as="geometry" />
        </mxCell>
      </root>
    </mxGraphModel>
  </diagram>
</mxfile>
